# Blender v2.80 (sub 75) OBJ File: ''
# www.blender.org
mtllib head1-1.mtl
o obj_0.009
v 2.192669 1.761316 -0.006098
v 2.150059 1.846406 -0.036998
v 2.193949 1.758776 -0.011678
v 2.169159 1.808306 -0.120598
v 2.192669 1.761316 -0.006088
v 2.350270 1.446526 -0.061848
v 2.350259 1.446546 -0.061898
v 2.386460 1.374206 -0.120598
v 2.362979 1.421166 0.117502
v 2.405560 1.336106 0.148402
v 2.350270 1.446526 0.173253
v 2.362979 1.421156 0.117492
v 2.386460 1.374206 0.232002
v -0.221541 0.552406 -0.006097
v 2.305519 1.535946 -0.134478
v 2.305509 1.535976 -0.134498
v 2.319359 1.508306 -0.229598
v 2.280589 1.585756 -0.143318
v 2.305519 1.535946 0.245883
v 2.319359 1.508306 0.341002
v 2.305509 1.535976 0.245903
v 2.302739 1.541506 0.246882
v 2.616259 2.032106 -0.120598
v 2.597159 2.070206 -0.036998
v 2.348269 1.450506 0.177722
v 2.356759 1.433606 0.298402
v 2.330489 1.486076 0.217502
v 2.330469 1.486126 0.217532
v 2.590559 2.083406 0.055702
v 2.188269 1.770056 0.055702
v 2.188709 1.769186 0.049522
v -0.225941 0.561106 0.055703
v -0.051241 0.212206 0.117503
v 2.169159 1.808306 0.232002
v 2.645960 1.972806 0.298402
v 2.616259 2.032106 0.232002
v 2.277819 1.591276 -0.144298
v -0.136341 0.382306 -0.144297
v 2.250189 1.646476 -0.134508
v 2.205420 1.735886 0.173302
v 2.205400 1.735926 0.173222
v -0.208841 0.527006 0.173303
v 2.724859 1.815106 0.055702
v 2.683360 1.898006 -0.229598
v 2.645960 1.972806 -0.186998
v 2.225189 1.696346 -0.106107
v 2.198859 1.748906 -0.186998
v 2.227679 1.691376 -0.108938
v 2.236359 1.674106 -0.229598
v 2.250180 1.646506 -0.134498
v 2.277819 1.591276 0.255702
v 2.250189 1.646476 0.245912
v -0.136341 0.382306 0.255703
v 2.597159 2.070206 0.148402
v 2.356759 1.433606 -0.186998
v 2.330469 1.486126 -0.106128
v 2.307999 1.530996 -0.131658
v 2.683360 1.898006 0.341002
v 2.223199 1.700326 0.213082
v 2.205400 1.735926 -0.061818
v 2.225179 1.696366 0.217502
v 2.198859 1.748906 0.298402
v 2.225189 1.696346 0.217512
v 2.330489 1.486076 -0.106098
v 2.332469 1.482116 -0.101677
v 2.724859 1.815106 -0.244298
v 2.724859 1.815106 0.355702
v 2.225179 1.696366 -0.106098
v 2.207399 1.731926 -0.066318
v 2.277859 1.591206 -0.244298
v 2.205420 1.735886 -0.061898
v 2.250180 1.646506 0.245903
v -0.164041 0.437506 0.245903
v 2.833560 1.598106 -0.120598
v 2.405560 1.336106 -0.036998
v 2.236359 1.674106 0.341002
v 2.277859 1.591206 0.355702
v 2.247679 1.651496 0.243062
v 2.766459 1.732206 -0.229598
v -0.189041 0.487406 0.217503
v 2.327999 1.491056 0.220342
v 2.803859 1.657406 -0.186998
v -0.108741 0.327006 -0.134497
v -0.136341 0.382306 0.055703
v 2.363420 1.420296 0.000082
v 2.412160 1.323006 0.055702
v 2.192669 1.761316 0.117502
v 2.204149 1.738426 0.167722
v 2.150059 1.846406 0.148402
v 2.192669 1.761316 0.117492
v -0.108741 0.327006 0.245903
v 2.367399 1.412386 0.055702
v -0.083741 0.277206 -0.106097
v 2.852659 1.560006 -0.036998
v -0.063941 0.237606 0.173303
v -0.083741 0.277206 0.217503
v 2.192230 1.762186 0.111322
v -0.051241 0.212206 -0.006097
v -0.046841 0.203506 0.055703
v 2.366969 1.413256 0.061882
v 2.803859 1.657406 0.298402
v -0.063941 0.237606 -0.061898
v 2.362979 1.421166 -0.006098
v 2.362979 1.421156 -0.006088
v 2.143460 1.859506 0.055702
v -0.164041 0.437506 -0.134497
v -0.221541 0.552406 0.117503
v -0.189041 0.487406 -0.106097
v 2.852659 1.560006 0.148402
v 2.859259 1.546906 0.055702
v -0.208841 0.527006 -0.061898
v 2.833560 1.598106 0.232002
v 2.766459 1.732206 0.341002
v 2.350259 1.446546 0.173302
vt 0.747585 0.295594
vt 0.789100 0.278764
vt 0.748486 0.297801
vt 0.802599 0.311818
vt 0.747582 0.295592
vt 0.650019 0.402390
vt 0.650043 0.402397
vt 0.642739 0.438954
vt 0.581608 0.362852
vt 0.540106 0.379672
vt 0.572587 0.340824
vt 0.581608 0.362857
vt 0.526606 0.346619
vt 0.447581 0.000006
vt 0.450495 0.000004
vt 0.447567 0.999977
vt 0.706869 0.395222
vt 0.706886 0.395219
vt 0.728018 0.428226
vt 0.728123 0.382949
vt 0.581594 0.295617
vt 0.540086 0.278804
vt 0.581597 0.295604
vt 0.583311 0.293727
vt 0.925090 0.000001
vt 0.925064 0.185176
vt 0.881440 0.000006
vt 0.881415 0.185182
vt 0.572581 0.338487
vt 0.526607 0.311838
vt 0.572575 0.317655
vt 0.572583 0.317634
vt 0.839227 0.000001
vt 0.419449 0.000014
vt 0.422262 0.000012
vt 0.419442 0.999991
vt 0.313543 0.000010
vt 0.313542 0.999992
vt 0.313537 0.000011
vt 0.562116 0.438969
vt 0.603792 0.624146
vt 0.562153 0.624145
vt 0.154808 0.000006
vt 0.154828 0.999970
vt 0.131757 0.000002
vt 0.108045 0.000001
vt 0.108080 0.000001
vt 0.108065 0.999983
vt 0.664597 0.109738
vt 0.565809 0.188306
vt 0.540108 0.160188
vt 0.756599 0.340812
vt 0.802599 0.346599
vt 0.755700 0.343009
vt 0.789076 0.379668
vt 0.601162 0.010764
vt 0.642724 0.000000
vt 0.747582 0.362858
vt 0.747590 0.362848
vt 0.023510 0.000006
vt 0.051145 0.000002
vt 0.023478 0.999969
vt 0.565801 0.031188
vt 0.686478 0.438949
vt 0.679183 0.402390
vt 0.704117 0.395933
vt 0.686437 0.000000
vt 0.540079 0.059300
vt 0.526621 0.127126
vt 0.526606 0.092373
vt 0.679130 0.256065
vt 0.652936 0.256060
vt 0.686467 0.219483
vt 0.679171 0.256075
vt 0.756584 0.317624
vt 0.650022 0.256062
vt 0.642728 0.219487
vt 0.650012 0.256066
vt 0.679156 0.402396
vt 0.676242 0.402398
vt 0.601176 0.208741
vt 0.728019 0.010734
vt 0.756603 0.340803
vt 0.756593 0.319974
vt 0.758883 0.624141
vt 0.724262 0.624137
vt 0.758864 0.438982
vt 0.756596 0.317657
vt 0.051160 0.000000
vt 0.051129 0.999989
vt 0.885689 0.438972
vt 0.921768 0.624158
vt 0.885689 0.624164
vt 0.601143 0.230245
vt 0.598735 0.276841
vt 0.565773 0.250675
vt 0.622287 0.263238
vt 0.763389 0.407796
vt 0.965932 0.185192
vt 0.730479 0.381588
vt 0.625074 0.262515
vt 0.642777 0.219483
vt 0.622301 0.263233
vt 0.080295 0.999993
vt 0.054077 0.000000
vt 0.999970 0.185178
vt 0.965941 0.000000
vt 0.573473 0.315453
vt 0.686490 0.219483
vt 0.724244 0.438978
vt 0.999970 0.000019
vt 0.728051 0.208719
vt 0.604098 0.624150
vt 0.633243 0.624169
vt 0.618613 0.697318
vt 0.619960 0.393856
vt 0.601169 0.428223
vt 0.565807 0.407789
vt 0.706876 0.263227
vt 0.681903 0.256783
vt 0.728036 0.230213
vt 0.706879 0.263230
vt 0.660850 0.763334
vt 0.633127 0.770486
vt 0.598725 0.381610
vt 0.660939 0.631343
vt 0.526606 0.438963
vt 0.526644 0.624138
vt 1.000000 0.219489
vt 1.000000 0.404681
vt 0.965774 0.219502
vt 0.647505 0.624126
vt 0.647523 0.438967
vt 0.689008 0.624122
vt 0.701584 0.731003
vt 0.684423 0.749728
vt 0.000000 1.000000
vt 0.000015 0.000006
vt 0.002364 0.000006
vt 0.709233 0.264590
vt 0.710599 0.708951
vt 0.701629 0.663733
vt 0.710599 0.685779
vt 0.597009 0.379738
vt 0.080312 0.000011
vt 0.083089 0.000010
vt 0.603792 0.438954
vt 0.395028 0.000002
vt 0.395028 0.999996
vt 0.395013 0.000004
vt 0.373152 0.000003
vt 0.839017 0.219498
vt 0.839038 0.404674
vt 0.802599 0.219500
vt 0.684515 0.644958
vt 0.689026 0.438962
vt 0.843758 0.438973
vt 0.800063 0.438954
vt 0.800063 0.624146
vt 0.263419 0.000014
vt 0.263425 0.000015
vt 0.263425 0.999996
vt 0.604004 0.770464
vt 0.732167 0.278722
vt 0.763398 0.250647
vt 0.576397 0.631299
vt 0.526606 0.708859
vt 0.526606 0.685687
vt 0.730453 0.276848
vt 0.576266 0.763295
vt 0.552690 0.749680
vt 0.211429 0.000009
vt 0.214225 0.000010
vt 0.211400 0.999979
vt 0.182278 0.000006
vt 0.182295 0.000008
vt 0.182282 1.000000
vt 0.185188 0.000007
vt 0.535576 0.730905
vt 0.843722 0.624149
vt 0.552782 0.644910
vt 0.157552 0.000004
vt 0.802607 0.127110
vt 0.789097 0.160168
vt 0.535621 0.663635
vt 0.881160 0.219483
vt 0.924825 0.219489
vt 0.881160 0.404675
vt 0.839218 0.185193
vt 0.802632 0.000002
vt 0.724244 0.438958
vt 0.724244 0.624150
vt 0.802607 0.185178
vt 0.802593 0.092356
vt 0.802600 0.404693
vt 0.763412 0.188294
vt 0.476716 0.000001
vt 0.479438 0.000002
vt 0.476692 0.999983
vt 0.921768 0.438966
vt 0.572578 0.340805
vt 0.763405 0.031177
vt 0.789106 0.059294
vt 0.476674 0.000001
vt 0.370743 0.999975
vt 0.370749 0.000003
vt 0.924825 0.404681
vt 0.965774 0.404694
vt 0.286249 0.999977
vt 0.288960 0.000000
vt 0.265708 0.000008
vt 0.110413 0.000000
vt 0.131746 0.000006
vt 0.131746 0.999977
vt 0.239363 0.999989
vt 0.080300 0.000011
vt 0.622310 0.395219
vt 0.239382 0.000017
vt 0.526606 0.999989
vt 0.503909 0.999993
vt 0.506185 0.000011
vt 0.503916 0.000011
vt 0.503924 0.000011
vt 0.239361 0.000017
vt 0.211400 0.000007
vt 0.622316 0.395219
vt 0.447577 0.000006
vt 0.397484 0.000007
vt 0.395028 0.999976
vt 0.395047 0.000005
vt 0.395043 0.000005
vt 0.131746 0.000000
vt 0.131766 0.999989
vt 0.370725 0.000005
vt 0.345482 0.000015
vt 0.342674 0.000013
vt 0.342675 0.999985
vt 0.342649 0.000013
vt 0.286232 0.000002
vt 0.526606 0.000000
vn -0.9638 0.2192 -0.1513
vn -0.9169 0.3270 -0.2286
vn -0.9143 0.2464 -0.3215
vn -0.8699 0.2332 -0.4346
vn -0.9400 0.3362 -0.0569
vn -0.3392 -0.8899 -0.3048
vn -0.4258 -0.8244 -0.3728
vn -0.3347 -0.8361 -0.4345
vn -0.3809 -0.7938 0.4741
vn -0.2875 -0.9301 0.2282
vn -0.3392 -0.8898 0.3052
vn -0.3945 -0.8114 0.4312
vn -0.3347 -0.8361 0.4345
vn -0.9170 0.3272 -0.2281
vn -0.4634 -0.6038 -0.6485
vn -0.6062 -0.5024 -0.6165
vn -0.4999 -0.5059 -0.7029
vn -0.5826 -0.4158 -0.6983
vn -0.4635 -0.6037 0.6486
vn -0.5000 -0.5059 0.7029
vn -0.6062 -0.5025 0.6164
vn -0.5827 -0.4155 0.6984
vn 0.3347 0.8363 -0.4342
vn 0.2877 0.9300 -0.2287
vn -0.4082 -0.7635 0.5004
vn -0.4078 -0.6900 0.5980
vn -0.4799 -0.6747 0.5607
vn -0.5041 -0.5958 0.6252
vn 0.2712 0.9625 0.0000
vn -0.9644 0.2644 0.0001
vn -0.9450 0.3077 -0.1107
vn -0.9334 0.3589 0.0000
vn -0.2877 -0.9302 0.2279
vn -0.8699 0.2332 0.4345
vn 0.4078 0.6901 0.5979
vn 0.3347 0.8363 0.4342
vn -0.6651 -0.3334 -0.6681
vn -0.6020 -0.3013 -0.7394
vn -0.7287 -0.1250 -0.6733
vn -0.9015 0.1491 0.4061
vn -0.9138 0.2356 0.3308
vn -0.8700 0.2333 0.4344
vn 0.8941 0.4477 0.0000
vn 0.5000 0.5057 -0.7030
vn 0.4078 0.6901 -0.5979
vn -0.7626 -0.0417 -0.6455
vn -0.7967 0.0868 -0.5980
vn -0.7758 -0.0299 -0.6302
vn -0.7044 -0.0974 -0.7030
vn -0.7963 -0.0548 -0.6024
vn -0.6654 -0.3330 0.6681
vn -0.7269 -0.1270 0.6749
vn -0.6020 -0.3013 0.7394
vn 0.2876 0.9300 0.2287
vn -0.4078 -0.6900 -0.5980
vn -0.5050 -0.5938 -0.6264
vn -0.4886 -0.6035 -0.6301
vn 0.5000 0.5057 0.7030
vn -0.8562 0.1304 0.4998
vn -0.9136 0.2355 -0.3313
vn -0.8392 0.0031 0.5438
vn -0.7968 0.0867 0.5980
vn -0.7653 -0.0363 0.6426
vn -0.4815 -0.6727 -0.5618
vn -0.4087 -0.7633 -0.5003
vn 0.6020 0.3017 -0.7393
vn 0.6020 0.3017 0.7393
vn -0.8383 -0.0046 -0.5451
vn -0.8561 0.1307 -0.5000
vn -0.6022 -0.3015 -0.7392
vn -0.9015 0.1487 -0.4064
vn -0.7960 -0.0573 0.6025
vn -0.7045 -0.0978 0.7029
vn 0.8701 -0.2330 -0.4343
vn -0.2875 -0.9301 -0.2282
vn -0.7044 -0.0974 0.7030
vn -0.6022 -0.3015 0.7392
vn -0.7758 -0.0300 0.6302
vn 0.7047 0.0976 -0.7027
vn -0.7967 0.0864 0.5981
vn -0.4887 -0.6035 0.6300
vn 0.7968 -0.0872 -0.5979
vn -0.5003 -0.5059 -0.7027
vn -0.8942 -0.4477 0.0000
vn -0.3192 -0.9413 -0.1097
vn -0.2712 -0.9625 0.0000
vn -0.9641 0.2180 0.1511
vn -0.9143 0.2470 0.3208
vn -0.9169 0.3271 0.2286
vn -0.9403 0.3354 0.0569
vn -0.5003 -0.5059 0.7027
vn -0.3660 -0.9306 -0.0002
vn -0.4077 -0.6899 -0.5981
vn 0.9170 -0.3269 -0.2286
vn -0.3345 -0.8361 0.4348
vn -0.4077 -0.6900 0.5980
vn -0.9449 0.3079 0.1108
vn -0.2877 -0.9302 -0.2279
vn -0.2713 -0.9625 0.0000
vn -0.3200 -0.9409 0.1104
vn 0.7968 -0.0873 0.5979
vn -0.3345 -0.8361 -0.4347
vn -0.3795 -0.7925 -0.4773
vn -0.3948 -0.8092 -0.4350
vn -0.9333 0.3591 0.0000
vn -0.7045 -0.0978 -0.7029
vn -0.9170 0.3272 0.2282
vn -0.7967 0.0864 -0.5981
vn 0.9170 -0.3269 0.2286
vn 0.9333 -0.3591 0.0000
vn -0.8700 0.2333 -0.4344
vn 0.8701 -0.2330 0.4344
vn 0.7047 0.0976 0.7027
vn -0.4256 -0.8244 0.3730
usemtl color_16089887.002
s 1
f 1/1/1 2/2/2 3/3/3
f 3/3/3 2/2/2 4/4/4
f 1/1/1 5/5/5 2/2/2
f 6/6/6 7/7/7 8/8/8
f 9/9/9 10/10/10 11/11/11
f 12/12/12 10/10/10 9/9/9
f 13/13/13 11/11/11 10/10/10
f 1/14/1 3/15/3 14/16/14
f 15/17/15 16/18/16 17/19/17
f 18/20/18 17/19/17 16/18/16
f 19/21/19 20/22/20 21/23/21
f 22/24/22 21/23/21 20/22/20
f 23/25/23 4/26/4 24/27/24
f 2/28/2 24/27/24 4/26/4
f 25/29/25 26/30/26 27/31/27
f 28/32/28 27/31/27 26/30/26
f 29/33/29 24/27/24 2/28/2
f 30/34/30 31/35/31 32/36/32
f 9/37/9 33/38/33 12/39/12
f 34/40/34 35/41/35 36/42/36
f 37/43/37 38/44/38 39/45/39
f 40/46/40 41/47/41 42/48/42
f 43/49/43 44/50/44 45/51/45
f 46/52/46 47/53/47 48/54/48
f 47/53/47 49/55/49 48/54/48
f 36/56/36 35/57/35 43/49/43
f 39/58/39 50/59/50 49/55/49
f 50/59/50 48/54/48 49/55/49
f 51/60/51 52/61/52 53/62/53
f 54/63/54 36/56/36 43/49/43
f 55/64/55 56/65/56 57/66/57
f 15/17/15 17/19/17 57/66/57
f 55/64/55 57/66/57 17/19/17
f 35/57/35 58/67/58 43/49/43
f 29/68/29 54/63/54 43/49/43
f 45/51/45 23/69/23 43/49/43
f 24/70/24 29/68/29 43/49/43
f 40/71/40 59/72/59 34/73/34
f 41/74/41 40/71/40 34/73/34
f 23/69/23 24/70/24 43/49/43
f 60/75/60 3/3/3 4/4/4
f 61/76/61 62/77/62 59/72/59
f 63/78/63 62/77/62 61/76/61
f 64/79/64 55/64/55 65/80/65
f 56/65/56 55/64/55 64/79/64
f 8/8/8 65/80/65 55/64/55
f 62/77/62 34/73/34 59/72/59
f 7/7/7 65/80/65 8/8/8
f 43/49/43 66/81/66 44/50/44
f 67/82/67 43/49/43 58/67/58
f 68/83/68 69/84/69 47/53/47
f 46/52/46 68/83/68 47/53/47
f 70/85/70 49/86/49 66/87/66
f 71/88/71 4/4/4 69/84/69
f 4/4/4 47/53/47 69/84/69
f 72/89/72 73/90/73 52/61/52
f 71/88/71 60/75/60 4/4/4
f 74/91/74 75/92/75 8/93/8
f 76/94/76 51/95/51 77/96/77
f 52/97/52 51/95/51 76/94/76
f 18/20/18 70/98/70 17/19/17
f 4/26/4 23/25/23 47/99/47
f 51/95/51 22/24/22 77/96/77
f 37/100/37 39/58/39 49/55/49
f 20/22/20 77/96/77 22/24/22
f 37/100/37 49/55/49 70/98/70
f 18/20/18 37/100/37 70/98/70
f 62/77/62 78/101/78 76/94/76
f 79/102/79 66/81/66 43/49/43
f 78/101/78 72/103/72 76/94/76
f 80/104/80 73/90/73 78/105/78
f 63/78/63 78/101/78 62/77/62
f 49/106/49 47/99/47 45/107/45
f 72/103/72 52/97/52 76/94/76
f 19/21/19 81/108/81 20/22/20
f 79/102/79 43/49/43 82/109/82
f 28/32/28 26/30/26 81/108/81
f 26/30/26 20/22/20 81/108/81
f 44/110/44 66/87/66 49/86/49
f 49/106/49 45/107/45 44/111/44
f 82/109/82 43/49/43 74/112/74
f 38/113/38 83/114/83 84/115/84
f 47/99/47 23/25/23 45/107/45
f 85/116/85 75/117/75 86/118/86
f 87/119/87 88/120/88 89/121/89
f 90/122/90 87/119/87 89/121/89
f 84/115/84 91/123/91 53/124/53
f 92/125/92 85/116/85 86/118/86
f 41/74/41 34/73/34 88/120/88
f 34/73/34 89/121/89 88/120/88
f 83/114/83 93/126/93 84/115/84
f 89/127/89 34/40/34 54/128/54
f 75/129/75 94/130/94 86/131/86
f 58/132/58 76/133/76 67/134/67
f 84/115/84 95/135/95 96/136/96
f 91/137/91 21/138/21 22/139/22
f 89/121/89 97/140/97 90/122/90
f 84/115/84 33/141/33 95/135/95
f 84/115/84 98/142/98 99/143/99
f 36/42/36 54/128/54 34/40/34
f 92/125/92 86/118/86 100/144/100
f 100/144/100 10/10/10 12/12/12
f 86/118/86 10/10/10 100/144/100
f 61/145/61 59/146/59 80/104/80
f 35/41/35 34/40/34 62/147/62
f 21/148/21 91/149/91 19/150/19
f 81/151/81 19/150/19 91/149/91
f 59/146/59 40/46/40 42/48/42
f 62/147/62 76/133/76 58/132/58
f 58/132/58 35/41/35 62/147/62
f 26/152/26 101/153/101 20/154/20
f 84/115/84 102/155/102 98/142/98
f 77/156/77 67/134/67 76/133/76
f 82/157/82 74/91/74 8/93/8
f 91/123/91 84/115/84 96/136/96
f 66/87/66 79/158/79 17/159/17
f 84/115/84 93/126/93 102/155/102
f 66/87/66 17/159/17 70/85/70
f 103/160/103 104/161/104 98/162/98
f 84/115/84 99/143/99 33/141/33
f 73/163/73 84/115/84 53/124/53
f 2/2/2 31/164/31 105/165/105
f 84/115/84 106/166/106 38/113/38
f 84/115/84 32/167/32 14/168/14
f 30/169/30 105/165/105 31/164/31
f 84/115/84 80/170/80 42/171/42
f 64/172/64 65/173/65 93/174/93
f 84/115/84 73/163/73 80/170/80
f 5/5/5 31/164/31 2/2/2
f 16/175/16 15/176/15 83/177/83
f 57/178/57 83/177/83 15/176/15
f 84/115/84 42/171/42 107/179/107
f 55/180/55 82/157/82 8/93/8
f 84/115/84 108/181/108 106/166/106
f 30/169/30 97/140/97 105/165/105
f 83/177/83 18/182/18 16/175/16
f 79/158/79 82/157/82 55/180/55
f 79/158/79 55/180/55 17/159/17
f 89/121/89 105/165/105 97/140/97
f 37/43/37 18/182/18 38/44/38
f 43/49/43 109/183/109 110/184/110
f 84/115/84 107/179/107 32/167/32
f 84/115/84 14/168/14 111/185/111
f 13/186/13 10/187/10 112/188/112
f 29/33/29 2/28/2 105/189/105
f 54/190/54 29/33/29 105/189/105
f 84/115/84 111/185/111 108/181/108
f 20/191/20 113/192/113 77/156/77
f 105/189/105 89/193/89 54/190/54
f 13/13/13 26/30/26 25/29/25
f 67/134/67 77/156/77 113/192/113
f 112/194/112 109/183/109 43/49/43
f 20/154/20 101/153/101 113/195/113
f 94/196/94 74/112/74 43/49/43
f 71/197/71 69/198/69 111/199/111
f 75/92/75 74/91/74 94/200/94
f 11/11/11 13/13/13 114/201/114
f 25/29/25 114/201/114 13/13/13
f 110/184/110 94/196/94 43/49/43
f 113/202/113 43/49/43 67/82/67
f 101/203/101 112/194/112 43/49/43
f 3/15/3 60/204/60 111/199/111
f 81/151/81 96/205/96 28/206/28
f 10/187/10 86/131/86 109/207/109
f 110/208/110 109/207/109 86/131/86
f 33/38/33 99/209/99 100/210/100
f 101/153/101 26/152/26 112/188/112
f 110/208/110 86/131/86 94/130/94
f 100/210/100 12/39/12 33/38/33
f 26/152/26 13/186/13 112/188/112
f 109/207/109 112/188/112 10/187/10
f 104/161/104 85/211/85 98/162/98
f 88/212/88 87/213/87 107/214/107
f 98/162/98 102/215/102 103/160/103
f 101/203/101 43/49/43 113/202/113
f 42/48/42 80/104/80 59/146/59
f 78/105/78 63/216/63 80/104/80
f 18/182/18 83/177/83 38/44/38
f 85/116/85 104/217/104 75/117/75
f 6/218/6 103/160/103 102/215/102
f 85/211/85 99/209/99 98/162/98
f 102/215/102 93/174/93 65/173/65
f 106/219/106 108/220/108 48/221/48
f 68/222/68 46/223/46 108/220/108
f 46/223/46 48/221/48 108/220/108
f 65/173/65 7/224/7 102/215/102
f 69/198/69 68/222/68 108/220/108
f 108/220/108 111/199/111 69/198/69
f 111/199/111 14/16/14 3/15/3
f 71/197/71 111/199/111 60/204/60
f 64/172/64 93/174/93 56/225/56
f 6/6/6 8/8/8 75/117/75
f 57/178/57 93/174/93 83/177/83
f 103/226/103 6/6/6 75/117/75
f 104/217/104 103/226/103 75/117/75
f 14/16/14 32/36/32 31/35/31
f 1/14/1 14/16/14 5/227/5
f 31/35/31 5/227/5 14/16/14
f 32/36/32 97/228/97 30/34/30
f 32/36/32 107/229/107 97/228/97
f 90/230/90 97/228/97 107/229/107
f 87/231/87 90/230/90 107/229/107
f 50/232/50 39/45/39 106/233/106
f 107/214/107 42/48/42 88/212/88
f 41/47/41 88/212/88 42/48/42
f 61/145/61 80/104/80 63/216/63
f 73/90/73 72/89/72 78/105/78
f 53/62/53 52/61/52 73/90/73
f 27/234/27 28/206/28 96/205/96
f 38/44/38 106/233/106 39/45/39
f 96/205/96 81/151/81 91/149/91
f 25/235/25 27/234/27 96/205/96
f 114/236/114 25/235/25 95/237/95
f 96/205/96 95/237/95 25/235/25
f 22/139/22 53/62/53 91/137/91
f 9/37/9 11/238/11 95/237/95
f 33/38/33 9/37/9 95/237/95
f 22/139/22 51/60/51 53/62/53
f 92/239/92 100/210/100 99/209/99
f 85/211/85 92/239/92 99/209/99
f 7/224/7 6/218/6 102/215/102
f 114/236/114 95/237/95 11/238/11
f 57/178/57 56/225/56 93/174/93
f 106/219/106 48/221/48 50/240/50
