# Blender v2.81 (sub 16) OBJ File: ''
# www.blender.org
o obj_0.001
v 0.570597 0.185400 0.300000
v 0.300357 0.000000 0.300000
v 0.599997 0.000000 0.300000
v 0.570597 -0.185400 0.300000
v -0.243003 -0.176520 0.300000
v -0.352683 -0.485400 0.300000
v -0.176523 -0.243000 0.300000
v -0.000003 0.600000 -0.300000
v 0.185397 0.570600 -0.300000
v -0.000003 0.300360 -0.300000
v 0.485397 0.352680 0.300000
v 0.352677 0.485400 0.300000
v 0.176517 0.243000 0.300000
v -0.000003 -0.600000 0.300000
v -0.185403 -0.570600 0.300000
v -0.185403 -0.570600 -0.300000
v -0.000003 -0.600000 -0.300000
v 0.285597 -0.092760 -0.300000
v 0.570597 -0.185400 -0.300000
v 0.242997 -0.176520 -0.300000
v 0.176517 -0.243000 -0.300000
v 0.485397 -0.352680 -0.300000
v -0.092763 0.285600 0.300000
v -0.185403 0.570600 0.300000
v -0.176523 0.243000 0.300000
v 0.242997 0.176520 0.300000
v 0.176517 0.243000 -0.300000
v -0.352683 0.485400 0.300000
v -0.243003 0.176520 0.300000
v 0.242997 -0.176520 0.300000
v 0.176517 -0.243000 0.300000
v -0.352683 -0.485400 -0.300000
v 0.300357 0.000000 -0.300000
v 0.485397 -0.352680 0.300000
v 0.285597 -0.092760 0.300000
v -0.485403 -0.352680 0.300000
v -0.485403 -0.352680 -0.300000
v 0.285597 0.092760 0.300000
v -0.570603 -0.185400 0.300000
v -0.570603 -0.185400 -0.300000
v -0.600003 0.000000 0.300000
v -0.600003 0.000000 -0.300000
v -0.000003 -0.300360 -0.300000
v 0.092757 -0.285600 -0.300000
v 0.185397 -0.570600 -0.300000
v 0.092757 0.285600 0.300000
v -0.570603 0.185400 0.300000
v -0.570603 0.185400 -0.300000
v -0.285603 0.092760 0.300000
v 0.285597 0.092760 -0.300000
v 0.185397 -0.570600 0.300000
v -0.000003 -0.300360 0.300000
v -0.092763 -0.285600 0.300000
v 0.092757 -0.285600 0.300000
v 0.352677 -0.485400 0.300000
v -0.485403 0.352680 0.300000
v -0.485403 0.352680 -0.300000
v 0.242997 0.176520 -0.300000
v -0.285603 -0.092760 0.300000
v -0.300243 0.000000 0.300000
v -0.092763 0.285600 -0.300000
v -0.000003 0.300360 0.300000
v -0.352683 0.485400 -0.300000
v -0.300243 0.000000 -0.300000
v -0.285603 -0.092760 -0.300000
v -0.243003 -0.176520 -0.300000
v 0.092757 0.285600 -0.300000
v -0.185403 0.570600 -0.300000
v -0.000003 0.600000 0.300000
v -0.243003 0.176520 -0.300000
v -0.285603 0.092760 -0.300000
v 0.185397 0.570600 0.300000
v -0.176523 0.243000 -0.300000
v 0.485397 0.352680 -0.300000
v 0.352677 0.485400 -0.300000
v 0.599997 0.000000 -0.300000
v 0.352677 -0.485400 -0.300000
v 0.570597 0.185400 -0.300000
v -0.176523 -0.243000 -0.300000
v -0.092763 -0.285600 -0.300000
vt 0.000000 0.789555
vt 0.115646 0.807509
vt 0.020622 0.864880
vt 0.059892 0.928948
vt 0.316471 0.769831
vt 0.401144 0.864946
vt 0.306127 0.807552
vt 0.401174 0.135119
vt 0.421796 0.210445
vt 0.306150 0.192491
vt 0.000000 0.710358
vt 0.020652 0.635054
vt 0.115669 0.692448
vt 0.635330 0.293892
vt 0.635330 0.357951
vt 0.421796 0.357952
vt 0.421796 0.293892
vt 0.227612 0.375124
vt 0.244266 0.500000
vt 0.194168 0.375147
vt 0.162348 0.362885
vt 0.177456 0.500000
vt 0.194184 0.624876
vt 0.177530 0.500000
vt 0.227628 0.624853
vt 0.631795 0.969028
vt 0.599973 0.969028
vt 0.599973 0.715903
vt 0.244340 0.500000
vt 0.259448 0.637115
vt 0.875906 0.253125
vt 0.875906 0.000000
vt 0.907728 0.253125
vt 0.635330 0.422016
vt 0.421796 0.422016
vt 0.259412 0.362912
vt 0.113930 0.975519
vt 0.162348 0.862885
vt 0.848865 0.253125
vt 0.635330 0.497324
vt 0.421796 0.497324
vt 0.105325 0.730169
vt 0.105344 0.769812
vt 0.635330 0.576521
vt 0.421796 0.576521
vt 0.135309 0.839554
vt 0.635330 0.651843
vt 0.421796 0.651843
vt 0.020622 0.364880
vt 0.000000 0.289555
vt 0.115646 0.307509
vt 0.135309 0.339554
vt 0.059892 0.428948
vt 0.572932 0.969028
vt 0.635330 0.715903
vt 0.421796 0.715903
vt 0.361904 0.571052
vt 0.286487 0.660446
vt 0.665238 0.969028
vt 0.665238 0.715903
vt 0.194168 0.875147
vt 0.307810 0.975554
vt 0.244266 1.000000
vt 0.259412 0.862912
vt 0.361857 0.929004
vt 0.286445 0.839603
vt 0.227612 0.875124
vt 0.177456 1.000000
vt 0.635330 0.651838
vt 0.848864 0.651838
vt 0.848864 0.715903
vt 0.631795 0.715903
vt 0.316452 0.730187
vt 0.306112 0.692514
vt 0.401174 0.635119
vt 0.480625 0.715903
vt 0.480625 0.969028
vt 0.448826 0.715903
vt 0.635330 0.576531
vt 0.848864 0.576531
vt 0.162403 0.137133
vt 0.135351 0.160397
vt 0.113986 0.024446
vt 0.115669 0.192448
vt 0.059939 0.070996
vt 0.572932 0.715903
vt 0.635330 0.497333
vt 0.848864 0.497333
vt 0.514068 0.715903
vt 0.421796 0.969028
vt 0.421796 0.715903
vt 0.448826 0.969028
vt 0.635330 0.422011
vt 0.848864 0.422011
vt 0.421796 0.710445
vt 0.421796 0.789642
vt 0.227628 0.124853
vt 0.194184 0.124876
vt 0.177530 0.000000
vt 0.635330 0.357952
vt 0.848864 0.357952
vt 0.286487 0.160446
vt 0.259448 0.137115
vt 0.361904 0.071052
vt 0.307866 0.024481
vt 0.244340 0.000000
vt 0.401144 0.364946
vt 0.316471 0.269831
vt 0.421796 0.289642
vt 0.848864 0.064061
vt 0.635330 0.064061
vt 0.635330 0.000000
vt 0.848864 0.000000
vt 0.635330 0.293888
vt 0.848864 0.293888
vt 0.635330 0.064065
vt 0.421796 0.064065
vt 0.421796 0.000000
vt 0.514068 0.969028
vt 0.635330 0.218580
vt 0.421796 0.139373
vt 0.162384 0.637088
vt 0.135351 0.660397
vt 0.059939 0.570996
vt 0.113986 0.524446
vt 0.307866 0.524481
vt 0.545890 0.715903
vt 0.545890 0.969028
vt 0.848864 0.218580
vt 0.635330 0.139383
vt 0.848864 0.139383
vt 0.361857 0.429004
vt 0.306127 0.307552
vt 0.307810 0.475554
vt 0.286445 0.339603
vt 0.635330 0.139372
vt 0.697037 0.715903
vt 0.697038 0.969028
vt 0.635330 0.218570
vt 0.421796 0.218570
vt 0.020652 0.135054
vt 0.316452 0.230188
vt 0.000000 0.210358
vt 0.105325 0.230169
vt 0.105344 0.269812
vt 1.000000 0.000000
vt 0.972970 0.253125
vt 0.972970 0.000000
vt 0.113930 0.475519
vt 0.941171 0.000000
vt 0.941171 0.253125
vt 0.907728 0.000000
vt 0.848864 0.000000
vt 0.724067 0.715903
vt 0.724067 0.969028
vt 0.572932 0.715903
vt 0.572932 0.969028
vt 0.875203 0.715903
vt 0.875203 0.969028
vt 0.848153 0.715903
vt 0.848153 0.969028
vt 0.816373 0.969028
vt 0.816373 0.715903
vt 0.782930 0.715903
vt 0.782930 0.969028
vt 0.751108 0.715903
vt 0.751108 0.969028
vt 0.724067 0.969028
vt 0.724067 0.715903
vt 1.000000 0.253125
vn 0.7029 0.2284 0.6735
vn -0.6679 0.0000 0.7442
vn 0.7392 0.0000 0.6735
vn 0.7029 -0.2284 0.6735
vn 0.5405 0.3924 0.7441
vn -0.4344 -0.5980 0.6735
vn 0.3924 0.5405 0.7441
vn 0.0000 0.7392 -0.6735
vn 0.2284 0.7029 -0.6735
vn 0.0000 -0.6679 -0.7442
vn 0.5980 0.4344 0.6735
vn 0.4344 0.5980 0.6735
vn -0.3924 -0.5405 0.7441
vn 0.0000 -0.7392 0.6735
vn -0.2284 -0.7029 0.6735
vn -0.2284 -0.7029 -0.6735
vn 0.0000 -0.7392 -0.6735
vn -0.6356 0.2065 -0.7439
vn 0.7029 -0.2284 -0.6735
vn -0.5405 0.3924 -0.7441
vn -0.3924 0.5405 -0.7441
vn 0.5980 -0.4344 -0.6735
vn 0.2065 -0.6356 0.7439
vn -0.2284 0.7029 0.6735
vn 0.3924 -0.5405 0.7441
vn -0.5405 -0.3924 0.7441
vn -0.3924 -0.5405 -0.7441
vn -0.4344 0.5980 0.6735
vn 0.5405 -0.3924 0.7441
vn -0.5405 0.3924 0.7441
vn -0.3924 0.5405 0.7441
vn -0.4344 -0.5980 -0.6735
vn -0.6679 0.0000 -0.7442
vn 0.5980 -0.4344 0.6735
vn -0.6356 0.2065 0.7439
vn -0.5980 -0.4344 0.6735
vn -0.5980 -0.4344 -0.6735
vn -0.6356 -0.2065 0.7439
vn -0.7029 -0.2284 0.6735
vn -0.7029 -0.2284 -0.6735
vn -0.7392 0.0000 0.6735
vn -0.7392 0.0000 -0.6735
vn 0.0000 0.6679 -0.7442
vn -0.2065 0.6356 -0.7439
vn 0.2284 -0.7029 -0.6735
vn -0.2065 -0.6356 0.7439
vn -0.7029 0.2284 0.6735
vn -0.7029 0.2284 -0.6735
vn 0.6355 -0.2060 0.7440
vn -0.6356 -0.2065 -0.7439
vn 0.2284 -0.7029 0.6735
vn 0.0000 0.6679 0.7442
vn 0.2065 0.6356 0.7439
vn -0.2065 0.6356 0.7439
vn 0.4344 -0.5980 0.6735
vn -0.5980 0.4344 0.6735
vn -0.5980 0.4344 -0.6735
vn -0.5405 -0.3924 -0.7441
vn 0.6355 0.2060 0.7440
vn 0.6682 0.0000 0.7439
vn 0.2065 -0.6356 -0.7439
vn 0.0000 -0.6679 0.7442
vn -0.4344 0.5980 -0.6735
vn 0.6682 0.0000 -0.7439
vn 0.6355 0.2060 -0.7440
vn 0.5405 0.3924 -0.7441
vn -0.2065 -0.6356 -0.7439
vn -0.2284 0.7029 -0.6735
vn 0.0000 0.7392 0.6735
vn 0.5405 -0.3924 -0.7441
vn 0.6355 -0.2060 -0.7440
vn 0.2284 0.7029 0.6735
vn 0.3924 -0.5405 -0.7441
vn 0.5980 0.4344 -0.6735
vn 0.4344 0.5980 -0.6735
vn 0.7392 0.0000 -0.6735
vn 0.4344 -0.5980 -0.6735
vn 0.7029 0.2284 -0.6735
vn 0.3924 0.5405 -0.7441
vn 0.2065 0.6356 -0.7439
s 1
f 1/1/1 2/2/2 3/3/3
f 4/4/4 3/3/3 2/2/2
f 5/5/5 6/6/6 7/7/7
f 8/8/8 9/9/9 10/10/10
f 11/11/11 12/12/12 13/13/13
f 14/14/14 15/15/15 16/16/16
f 14/14/14 16/16/16 17/17/17
f 18/18/18 19/19/19 20/20/20
f 21/21/21 20/20/20 22/22/22
f 23/23/23 24/24/24 25/25/25
f 26/26/26 13/27/13 27/28/27
f 25/25/25 28/29/28 29/30/29
f 30/31/30 20/32/20 31/33/31
f 6/34/6 32/35/32 15/15/15
f 16/16/16 15/15/15 32/35/32
f 33/36/33 19/19/19 18/18/18
f 34/37/34 4/4/4 30/38/30
f 35/39/35 20/32/20 30/31/30
f 6/34/6 36/40/36 37/41/37
f 6/34/6 37/41/37 32/35/32
f 1/1/1 26/42/26 38/43/38
f 36/40/36 39/44/39 40/45/40
f 36/40/36 40/45/40 37/41/37
f 11/11/11 13/13/13 26/42/26
f 26/42/26 1/1/1 11/11/11
f 38/43/38 2/2/2 1/1/1
f 2/2/2 35/46/35 4/4/4
f 35/46/35 30/38/30 4/4/4
f 39/44/39 41/47/41 42/48/42
f 39/44/39 42/48/42 40/45/40
f 17/49/17 16/50/16 43/51/43
f 44/52/44 45/53/45 43/51/43
f 44/52/44 21/21/21 45/53/45
f 17/49/17 43/51/43 45/53/45
f 46/54/46 27/28/27 13/27/13
f 41/47/41 47/55/47 48/56/48
f 41/47/41 48/56/48 42/48/42
f 29/30/29 47/57/47 49/58/49
f 38/59/38 26/26/26 50/60/50
f 34/37/34 30/38/30 31/61/31
f 14/62/14 51/63/51 52/64/52
f 15/65/15 14/62/14 52/64/52
f 52/64/52 53/66/53 15/65/15
f 54/67/54 52/64/52 51/63/51
f 31/61/31 54/67/54 51/63/51
f 51/63/51 55/68/55 31/61/31
f 34/37/34 31/61/31 55/68/55
f 56/69/56 57/70/57 47/55/47
f 48/71/48 47/55/47 57/70/57
f 58/72/58 26/26/26 27/28/27
f 59/73/59 60/74/60 41/75/41
f 23/76/23 61/77/61 62/78/62
f 28/79/28 63/80/63 57/70/57
f 28/79/28 57/70/57 56/69/56
f 64/81/64 65/82/65 42/83/42
f 65/82/65 66/84/66 40/85/40
f 42/83/42 65/82/65 40/85/40
f 46/54/46 67/86/67 27/28/27
f 24/87/24 68/88/68 63/80/63
f 24/87/24 63/80/63 28/79/28
f 61/77/61 23/76/23 25/89/25
f 67/90/67 46/91/46 62/78/62
f 67/90/67 62/78/62 10/92/10
f 69/93/69 8/94/8 68/88/68
f 69/93/69 68/88/68 24/87/24
f 53/66/53 7/7/7 15/65/15
f 47/57/47 41/75/41 49/58/49
f 60/74/60 49/58/49 41/75/41
f 41/75/41 39/95/39 59/73/59
f 5/5/5 59/73/59 39/95/39
f 39/95/39 36/96/36 5/5/5
f 6/6/6 5/5/5 36/96/36
f 15/65/15 7/7/7 6/6/6
f 70/97/70 71/98/71 48/99/48
f 10/92/10 62/78/62 61/77/61
f 72/100/72 9/101/9 8/94/8
f 72/100/72 8/94/8 69/93/69
f 61/102/61 73/103/73 68/104/68
f 63/105/63 68/104/68 73/103/73
f 73/103/73 70/97/70 63/105/63
f 57/106/57 70/97/70 48/99/48
f 10/10/10 61/102/61 68/104/68
f 8/8/8 10/10/10 68/104/68
f 74/107/74 27/108/27 75/109/75
f 76/110/76 3/111/3 4/112/4
f 76/110/76 4/112/4 19/113/19
f 12/114/12 75/115/75 9/101/9
f 12/114/12 9/101/9 72/100/72
f 34/116/34 22/117/22 19/118/19
f 34/116/34 19/118/19 4/112/4
f 61/77/61 25/89/25 73/119/73
f 57/106/57 63/105/63 70/97/70
f 75/115/75 12/114/12 11/120/11
f 34/116/34 77/121/77 22/117/22
f 62/122/62 46/123/46 72/124/72
f 69/125/69 62/122/62 72/124/72
f 24/24/24 62/122/62 69/125/69
f 28/29/28 25/25/25 24/24/24
f 56/126/56 29/30/29 28/29/28
f 47/57/47 29/30/29 56/126/56
f 62/122/62 24/24/24 23/23/23
f 46/123/46 13/13/13 72/124/72
f 12/12/12 72/124/72 13/13/13
f 29/127/29 70/128/70 25/89/25
f 73/119/73 25/89/25 70/128/70
f 11/120/11 74/129/74 75/115/75
f 1/130/1 78/131/78 74/129/74
f 1/130/1 74/129/74 11/120/11
f 76/110/76 78/131/78 1/130/1
f 76/110/76 1/130/1 3/111/3
f 58/72/58 50/60/50 26/26/26
f 22/22/22 20/20/20 19/19/19
f 9/9/9 75/109/75 27/108/27
f 78/132/78 58/133/58 74/107/74
f 78/132/78 76/134/76 33/36/33
f 19/19/19 33/36/33 76/134/76
f 50/135/50 58/133/58 78/132/78
f 33/36/33 50/135/50 78/132/78
f 34/116/34 55/136/55 77/121/77
f 58/133/58 27/108/27 74/107/74
f 50/60/50 33/137/33 38/59/38
f 2/138/2 38/59/38 33/137/33
f 42/83/42 48/99/48 71/98/71
f 42/83/42 71/98/71 64/81/64
f 55/136/55 51/139/51 45/140/45
f 55/136/55 45/140/45 77/121/77
f 37/141/37 40/85/40 66/84/66
f 27/108/27 67/142/67 9/9/9
f 32/143/32 37/141/37 66/84/66
f 51/139/51 14/14/14 17/17/17
f 51/139/51 17/17/17 45/140/45
f 79/144/79 32/143/32 66/84/66
f 67/142/67 10/10/10 9/9/9
f 80/145/80 16/50/16 79/144/79
f 80/146/80 52/147/52 43/148/43
f 43/51/43 16/50/16 80/145/80
f 32/143/32 79/144/79 16/50/16
f 77/149/77 45/53/45 21/21/21
f 43/148/43 52/147/52 44/150/44
f 54/151/54 44/150/44 52/147/52
f 22/22/22 77/149/77 21/21/21
f 44/150/44 54/151/54 21/152/21
f 31/33/31 21/152/21 54/151/54
f 20/32/20 21/152/21 31/33/31
f 35/39/35 18/153/18 20/32/20
f 18/154/18 35/155/35 2/138/2
f 18/154/18 2/138/2 33/137/33
f 49/156/49 71/157/71 70/128/70
f 49/156/49 70/128/70 29/127/29
f 71/158/71 49/159/49 64/160/64
f 60/161/60 64/160/64 49/159/49
f 59/162/59 65/163/65 64/160/64
f 59/162/59 64/160/64 60/161/60
f 65/163/65 59/162/59 66/164/66
f 5/165/5 66/164/66 59/162/59
f 66/164/66 5/165/5 79/166/79
f 7/167/7 79/166/79 5/165/5
f 53/168/53 80/169/80 79/166/79
f 53/168/53 79/166/79 7/167/7
f 80/146/80 53/170/53 52/147/52
